<svg id="Camada_1" data-name="Camada 1" xmlns="http://www.w3.org/2000/svg" xmlns:xlink="http://www.w3.org/1999/xlink" viewBox="0 0 2549.5 1097.79"><defs><style>.cls-1{fill:none;}.cls-2{fill:#e16;}.cls-3{fill:#fff;}.cls-4{fill:#6d00cc;}.cls-5{fill:url(#Novo_padrão_2);}</style><pattern id="Novo_padrão_2" data-name="Novo padrão 2" x="629.5" y="17.79" width="1170" height="1580.17" patternUnits="userSpaceOnUse" viewBox="0 0 1170 1580.17"><rect class="cls-1" width="1170" height="1580.17"/><polygon class="cls-2" points="661.25 1291.61 663.75 1290.88 663.02 1293.38 663.75 1295.88 661.25 1295.14 658.75 1295.88 659.48 1293.38 658.75 1290.88 661.25 1291.61"/><polygon class="cls-3" points="755.75 1560.94 758.25 1560.21 757.52 1562.71 758.25 1565.21 755.75 1564.48 753.25 1565.21 753.98 1562.71 753.25 1560.21 755.75 1560.94"/><polygon class="cls-2" points="896.67 1185.86 899.17 1185.13 898.43 1187.63 899.17 1190.13 896.67 1189.39 894.17 1190.13 894.9 1187.63 894.17 1185.13 896.67 1185.86"/><polygon class="cls-2" points="937.5 1456.89 940 1456.16 939.27 1458.66 940 1461.16 937.5 1460.43 935 1461.16 935.73 1458.66 935 1456.16 937.5 1456.89"/><polygon class="cls-4" points="1104.77 1496.39 1107.27 1495.66 1106.54 1498.16 1107.27 1500.66 1104.77 1499.93 1102.27 1500.66 1103 1498.16 1102.27 1495.66 1104.77 1496.39"/><polygon class="cls-3" points="1109.58 1235.11 1112.08 1234.38 1111.35 1236.88 1112.08 1239.38 1109.58 1238.64 1107.08 1239.38 1107.82 1236.88 1107.08 1234.38 1109.58 1235.11"/><circle class="cls-4" cx="807.5" cy="1329.41" r="2.5"/><polygon class="cls-2" points="76.25 1291.61 78.75 1290.88 78.02 1293.38 78.75 1295.88 76.25 1295.14 73.75 1295.88 74.48 1293.38 73.75 1290.88 76.25 1291.61"/><polygon class="cls-3" points="170.75 1560.94 173.25 1560.21 172.52 1562.71 173.25 1565.21 170.75 1564.48 168.25 1565.21 168.98 1562.71 168.25 1560.21 170.75 1560.94"/><polygon class="cls-2" points="311.67 1185.86 314.17 1185.13 313.43 1187.63 314.17 1190.13 311.67 1189.39 309.17 1190.13 309.9 1187.63 309.17 1185.13 311.67 1185.86"/><polygon class="cls-2" points="352.5 1456.89 355 1456.16 354.27 1458.66 355 1461.16 352.5 1460.43 350 1461.16 350.73 1458.66 350 1456.16 352.5 1456.89"/><polygon class="cls-4" points="519.77 1496.39 522.27 1495.66 521.54 1498.16 522.27 1500.66 519.77 1499.93 517.27 1500.66 518 1498.16 517.27 1495.66 519.77 1496.39"/><polygon class="cls-3" points="524.58 1235.11 527.08 1234.38 526.35 1236.88 527.08 1239.38 524.58 1238.64 522.08 1239.38 522.82 1236.88 522.08 1234.38 524.58 1235.11"/><circle class="cls-4" cx="222.5" cy="1329.41" r="2.5"/><polygon class="cls-2" points="953.75 501.52 956.25 500.79 955.52 503.29 956.25 505.79 953.75 505.06 951.25 505.79 951.98 503.29 951.25 500.79 953.75 501.52"/><polygon class="cls-3" points="1048.25 770.86 1050.75 770.13 1050.02 772.63 1050.75 775.13 1048.25 774.39 1045.75 775.13 1046.48 772.63 1045.75 770.13 1048.25 770.86"/><polygon class="cls-4" points="1068.25 1180.86 1070.75 1180.13 1070.02 1182.63 1070.75 1185.13 1068.25 1184.39 1065.75 1185.13 1066.48 1182.63 1065.75 1180.13 1068.25 1180.86"/><circle class="cls-2" cx="930" cy="1019.33" r="2.5"/><circle class="cls-4" cx="1100" cy="539.33" r="2.5"/><polygon class="cls-2" points="368.75 501.52 371.25 500.79 370.52 503.29 371.25 505.79 368.75 505.06 366.25 505.79 366.98 503.29 366.25 500.79 368.75 501.52"/><polygon class="cls-3" points="463.25 770.86 465.75 770.13 465.02 772.63 465.75 775.13 463.25 774.39 460.75 775.13 461.48 772.63 460.75 770.13 463.25 770.86"/><polygon class="cls-4" points="483.25 1180.86 485.75 1180.13 485.02 1182.63 485.75 1185.13 483.25 1184.39 480.75 1185.13 481.48 1182.63 480.75 1180.13 483.25 1180.86"/><polygon class="cls-2" points="683.25 1070.86 685.75 1070.13 685.02 1072.63 685.75 1075.13 683.25 1074.39 680.75 1075.13 681.48 1072.63 680.75 1070.13 683.25 1070.86"/><polygon class="cls-2" points="604.17 395.77 606.67 395.04 605.93 397.54 606.67 400.04 604.17 399.31 601.67 400.04 602.4 397.54 601.67 395.04 604.17 395.77"/><polygon class="cls-2" points="645 666.81 647.5 666.08 646.77 668.58 647.5 671.08 645 670.35 642.5 671.08 643.23 668.58 642.5 666.08 645 666.81"/><polygon class="cls-4" points="812.27 706.31 814.77 705.58 814.04 708.08 814.77 710.58 812.27 709.85 809.77 710.58 810.5 708.08 809.77 705.58 812.27 706.31"/><polygon class="cls-3" points="817.08 445.02 819.58 444.29 818.85 446.79 819.58 449.29 817.08 448.56 814.58 449.29 815.32 446.79 814.58 444.29 817.08 445.02"/><circle class="cls-2" cx="345" cy="1019.33" r="2.5"/><circle class="cls-2" cx="595" cy="889.33" r="2.5"/><circle class="cls-3" cx="825" cy="899.33" r="2.5"/><circle class="cls-4" cx="515" cy="539.33" r="2.5"/><polygon class="cls-2" points="98.25 1070.86 100.75 1070.13 100.02 1072.63 100.75 1075.13 98.25 1074.39 95.75 1075.13 96.48 1072.63 95.75 1070.13 98.25 1070.86"/><polygon class="cls-2" points="19.17 395.77 21.67 395.04 20.93 397.54 21.67 400.04 19.17 399.31 16.67 400.04 17.4 397.54 16.67 395.04 19.17 395.77"/><polygon class="cls-2" points="60 666.81 62.5 666.08 61.77 668.58 62.5 671.08 60 670.35 57.5 671.08 58.23 668.58 57.5 666.08 60 666.81"/><polygon class="cls-4" points="227.27 706.31 229.77 705.58 229.04 708.08 229.77 710.58 227.27 709.85 224.77 710.58 225.5 708.08 224.77 705.58 227.27 706.31"/><polygon class="cls-3" points="232.08 445.02 234.58 444.29 233.85 446.79 234.58 449.29 232.08 448.56 229.58 449.29 230.32 446.79 229.58 444.29 232.08 445.02"/><circle class="cls-2" cx="10" cy="889.33" r="2.5"/><circle class="cls-3" cx="240" cy="899.33" r="2.5"/><polygon class="cls-4" points="775.75 390.77 778.25 390.04 777.52 392.54 778.25 395.04 775.75 394.31 773.25 395.04 773.98 392.54 773.25 390.04 775.75 390.77"/><polygon class="cls-2" points="975.75 280.77 978.25 280.04 977.52 282.54 978.25 285.04 975.75 284.31 973.25 285.04 973.98 282.54 973.25 280.04 975.75 280.77"/><circle class="cls-2" cx="637.5" cy="229.24" r="2.5"/><circle class="cls-2" cx="887.5" cy="99.24" r="2.5"/><circle class="cls-3" cx="1117.5" cy="109.24" r="2.5"/><polygon class="cls-4" points="190.75 390.77 193.25 390.04 192.52 392.54 193.25 395.04 190.75 394.31 188.25 395.04 188.98 392.54 188.25 390.04 190.75 390.77"/><polygon class="cls-2" points="390.75 280.77 393.25 280.04 392.52 282.54 393.25 285.04 390.75 284.31 388.25 285.04 388.98 282.54 388.25 280.04 390.75 280.77"/><circle class="cls-2" cx="52.5" cy="229.24" r="2.5"/><circle class="cls-2" cx="302.5" cy="99.24" r="2.5"/><circle class="cls-3" cx="532.5" cy="109.24" r="2.5"/></pattern></defs><title>background</title><polygon class="cls-2" points="26.25 106.48 28.75 105.75 28.02 108.25 28.75 110.75 26.25 110.02 23.75 110.75 24.48 108.25 23.75 105.75 26.25 106.48"/><polygon class="cls-3" points="120.75 375.82 123.25 375.08 122.52 377.58 123.25 380.08 120.75 379.35 118.25 380.08 118.98 377.58 118.25 375.08 120.75 375.82"/><polygon class="cls-4" points="140.75 785.82 143.25 785.08 142.52 787.58 143.25 790.08 140.75 789.35 138.25 790.08 138.98 787.58 138.25 785.08 140.75 785.82"/><polygon class="cls-2" points="340.75 675.82 343.25 675.08 342.52 677.58 343.25 680.08 340.75 679.35 338.25 680.08 338.98 677.58 338.25 675.08 340.75 675.82"/><polygon class="cls-2" points="261.67 0.73 264.17 0 263.43 2.5 264.17 5 261.67 4.27 259.17 5 259.9 2.5 259.17 0 261.67 0.73"/><polygon class="cls-2" points="302.5 271.77 305 271.04 304.27 273.54 305 276.04 302.5 275.3 300 276.04 300.73 273.54 300 271.04 302.5 271.77"/><polygon class="cls-4" points="469.77 311.27 472.27 310.54 471.54 313.04 472.27 315.54 469.77 314.8 467.27 315.54 468 313.04 467.27 310.54 469.77 311.27"/><polygon class="cls-3" points="474.58 49.98 477.08 49.25 476.35 51.75 477.08 54.25 474.58 53.52 472.08 54.25 472.82 51.75 472.08 49.25 474.58 49.98"/><circle class="cls-2" cx="2.5" cy="624.29" r="2.5"/><circle class="cls-2" cx="252.5" cy="494.29" r="2.5"/><circle class="cls-3" cx="482.5" cy="504.29" r="2.5"/><circle class="cls-4" cx="172.5" cy="144.29" r="2.5"/><rect class="cls-5" x="629.5" y="17.79" width="1920" height="1080"/></svg>